<?xml version="1.0" encoding="UTF-8" standalone="no"?>
<!-- Generator: Adobe Illustrator 16.0.0, SVG Export Plug-In . SVG Version: 6.00 Build 0)  -->

<svg
   xmlns:dc="http://purl.org/dc/elements/1.1/"
   xmlns:cc="http://creativecommons.org/ns#"
   xmlns:rdf="http://www.w3.org/1999/02/22-rdf-syntax-ns#"
   xmlns:svg="http://www.w3.org/2000/svg"
   xmlns="http://www.w3.org/2000/svg"
   xmlns:sodipodi="http://sodipodi.sourceforge.net/DTD/sodipodi-0.dtd"
   xmlns:inkscape="http://www.inkscape.org/namespaces/inkscape"
   version="1.1"
   id="Capa_1"
   x="0px"
   y="0px"
   width="32"
   height="32"
   viewBox="0 0 32 32"
   xml:space="preserve"
   sodipodi:docname="switch.svg"
   inkscape:version="0.92.1 r15371"><metadata
     id="metadata51"><rdf:RDF><cc:Work
         rdf:about=""><dc:format>image/svg+xml</dc:format><dc:type
           rdf:resource="http://purl.org/dc/dcmitype/StillImage" /><dc:title></dc:title></cc:Work></rdf:RDF></metadata><defs
     id="defs49"><pattern
       y="0"
       x="0"
       height="6"
       width="6"
       patternUnits="userSpaceOnUse"
       id="EMFhbasepattern" /></defs><sodipodi:namedview
     pagecolor="#ffffff"
     bordercolor="#666666"
     borderopacity="1"
     objecttolerance="10"
     gridtolerance="10"
     guidetolerance="10"
     inkscape:pageopacity="0"
     inkscape:pageshadow="2"
     inkscape:window-width="1920"
     inkscape:window-height="1001"
     id="namedview47"
     showgrid="false"
     inkscape:snap-bbox="true"
     inkscape:bbox-paths="true"
     inkscape:bbox-nodes="true"
     inkscape:snap-bbox-edge-midpoints="true"
     inkscape:snap-bbox-midpoints="true"
     inkscape:object-paths="true"
     inkscape:snap-intersection-paths="true"
     inkscape:snap-midpoints="true"
     inkscape:snap-smooth-nodes="true"
     inkscape:zoom="11.313709"
     inkscape:cx="28.967338"
     inkscape:cy="21.081308"
     inkscape:window-x="-9"
     inkscape:window-y="-9"
     inkscape:window-maximized="1"
     inkscape:current-layer="Capa_1"
     showguides="true"
     inkscape:guide-bbox="true"
     inkscape:snap-page="true"
     inkscape:snap-global="true" /><g
     aria-label="↕"
     style="font-style:normal;font-variant:normal;font-weight:400;font-size:24.66950226px;line-height:125%;font-family:Calibri;text-align:start;letter-spacing:0px;word-spacing:0px;text-anchor:start;fill:#494949;fill-opacity:1;stroke:none;stroke-width:0.1;stroke-miterlimit:4;stroke-dasharray:none"
     id="text4492"><path
       d="m 16.001721,28.900897 q -0.265005,0 -0.469781,-0.108411 -0.204776,-0.09637 -0.409552,-0.301142 L 8.1961361,21.565092 q -0.08432,-0.08432 -0.1325022,-0.19273 -0.036137,-0.108411 0.012046,-0.265004 0.048183,-0.156594 0.2047761,-0.373416 0.1686392,-0.216822 0.4818262,-0.530009 0.3372784,-0.337278 0.5661458,-0.517963 0.2288675,-0.180685 0.3975067,-0.240913 0.1686391,-0.06023 0.2770496,-0.02409 0.108411,0.03614 0.216822,0.144548 0.578192,0.578191 1.096155,1.120246 0.517963,0.542054 1.035926,1.096154 0.517963,0.5541 1.047972,1.168429 0.542055,0.602283 1.168429,1.312976 V 7.7366801 q -0.626374,0.698648 -1.168429,1.3129764 -0.542054,0.6022828 -1.060017,1.1563825 -0.505918,0.554101 -1.023881,1.096155 -0.517963,0.530009 -1.096155,1.1082 -0.09637,0.108411 -0.216822,0.156594 -0.1084105,0.03614 -0.2770496,-0.01205 Q 9.5693408,12.494714 9.3284277,12.314029 9.0995603,12.133344 8.7622819,11.796066 8.4490949,11.470833 8.2804557,11.266057 8.1238622,11.049235 8.0756796,10.892642 8.027497,10.736048 8.0636339,10.627637 8.1118165,10.519226 8.1961361,10.422861 L 15.122388,3.508655 q 0.19273,-0.1927304 0.385461,-0.3011413 0.204776,-0.1084109 0.493872,-0.1084109 0.265004,0 0.46978,0.1084109 0.204777,0.096365 0.409553,0.3011413 l 6.926252,6.914206 q 0.08432,0.09637 0.120456,0.204776 0.04818,0.108411 0,0.265005 -0.04818,0.156593 -0.216822,0.373415 -0.156593,0.204776 -0.46978,0.530009 -0.337279,0.337278 -0.566146,0.517963 -0.228868,0.180685 -0.397507,0.240913 -0.168639,0.04818 -0.27705,0.01205 -0.108411,-0.04818 -0.216822,-0.156594 -0.578191,-0.578191 -1.096154,-1.1082 Q 20.181563,10.76014 19.6636,10.206039 19.157683,9.6519393 18.615628,9.0496565 18.073574,8.4353281 17.435154,7.7366801 V 24.263319 q 0.626374,-0.710693 1.168428,-1.312976 0.542055,-0.614329 1.060018,-1.168429 0.517963,-0.5541 1.023881,-1.096154 0.517963,-0.542055 1.096154,-1.120246 0.108411,-0.108411 0.216822,-0.144548 0.120457,-0.03614 0.27705,0.02409 0.168639,0.06023 0.397507,0.240913 0.228867,0.180685 0.566146,0.517963 0.313187,0.313187 0.46978,0.530009 0.168639,0.216822 0.216822,0.373416 0.04818,0.156593 0,0.265004 -0.03614,0.108411 -0.120456,0.19273 l -6.926252,6.926252 q -0.180685,0.192731 -0.385461,0.301142 -0.192731,0.108411 -0.493872,0.108411 z"
       style="font-style:normal;font-variant:normal;font-weight:bold;font-stretch:normal;font-size:24.66950226px;font-family:Calibri;-inkscape-font-specification:'Calibri Bold';fill:#494949;fill-opacity:1;stroke-width:0.1;stroke-miterlimit:4;stroke-dasharray:none"
       id="path4505" /></g></svg>